#N canvas 615 23 637 477 10;
#X floatatom 67 263 5 0 0 0 - - -;
#X floatatom 99 263 5 0 0 0 - - -;
#X floatatom 132 263 5 0 0 0 - - -;
#X text 68 285 H;
#X text 102 285 M;
#X text 135 287 S;
#X obj 57 27 tgl 15 0 empty empty empty 17 7 0 10 -262144 -1 -1 0 1
;
#X obj 68 166 watch_clock;
#X obj 62 76 metro 10;
#X msg 180 81 startstop;
#X msg 181 106 mode;
#X msg 182 133 reset;
#X connect 6 0 8 0;
#X connect 7 0 2 0;
#X connect 7 1 1 0;
#X connect 7 2 0 0;
#X connect 8 0 7 0;
#X connect 9 0 7 0;
#X connect 10 0 7 0;
#X connect 11 0 7 0;
